<svg width="125" height="47" viewBox="0 0 125 47" fill="none" xmlns="http://www.w3.org/2000/svg">
<path d="M14.9575 46.896C13.1015 46.896 11.2455 46.7573 9.3895 46.48C7.5335 46.2027 5.81617 45.8507 4.2375 45.424C2.65883 44.976 1.34683 44.5067 0.301499 44.016L1.1335 37.552C2.2855 38.1067 3.67217 38.6827 5.2935 39.28C6.93617 39.8773 8.70683 40.3787 10.6055 40.784C12.5042 41.1893 14.4242 41.392 16.3655 41.392C19.2455 41.392 21.5282 40.8693 23.2135 39.824C24.9202 38.7573 25.7735 37.104 25.7735 34.864C25.7735 33.1787 25.3468 31.8027 24.4935 30.736C23.6402 29.648 22.3495 28.72 20.6215 27.952C18.9148 27.184 16.7708 26.416 14.1895 25.648C11.7362 24.9227 9.47483 24.0693 7.4055 23.088C5.33617 22.0853 3.67217 20.752 2.4135 19.088C1.17617 17.4027 0.557499 15.1733 0.557499 12.4C0.557499 10.032 1.1655 7.94133 2.3815 6.128C3.61883 4.29333 5.4215 2.864 7.7895 1.84C10.1788 0.815997 13.1015 0.303997 16.5575 0.303997C19.5015 0.303997 22.2002 0.623997 24.6535 1.264C27.1282 1.904 29.1655 2.608 30.7655 3.376L30.1255 9.84C27.6935 8.38933 25.3682 7.35466 23.1495 6.736C20.9522 6.11733 18.6695 5.808 16.3015 5.808C13.6775 5.808 11.5015 6.29867 9.7735 7.28C8.06683 8.26133 7.2135 9.86133 7.2135 12.08C7.2135 13.5733 7.5975 14.8 8.3655 15.76C9.1335 16.6987 10.2748 17.5093 11.7895 18.192C13.3042 18.8533 15.1922 19.5253 17.4535 20.208C20.5682 21.1467 23.2455 22.224 25.4855 23.44C27.7255 24.6347 29.4428 26.1173 30.6375 27.888C31.8322 29.6373 32.4295 31.8133 32.4295 34.416C32.4295 36.336 32.0668 38.064 31.3415 39.6C30.6162 41.136 29.5282 42.448 28.0775 43.536C26.6268 44.624 24.8028 45.456 22.6055 46.032C20.4295 46.608 17.8802 46.896 14.9575 46.896ZM45.9325 46V1.2H73.2605V6.704H52.0125V19.824H68.9085V25.328H52.0125V40.496H73.8365V46H45.9325ZM105.818 46.896C101.615 46.896 98.138 46.096 95.386 44.496C92.6553 42.8747 90.618 40.5813 89.274 37.616C87.93 34.6293 87.258 31.088 87.258 26.992V1.2H93.338V25.328C93.338 27.376 93.498 29.36 93.818 31.28C94.138 33.2 94.7247 34.9173 95.578 36.432C96.4527 37.9467 97.7113 39.152 99.354 40.048C101.018 40.944 103.173 41.392 105.818 41.392C108.485 41.392 110.639 40.944 112.282 40.048C113.925 39.152 115.173 37.9467 116.026 36.432C116.901 34.896 117.498 33.168 117.818 31.248C118.138 29.328 118.298 27.3547 118.298 25.328V1.2H124.378V26.992C124.378 31.088 123.706 34.6293 122.362 37.616C121.018 40.5813 118.97 42.8747 116.218 44.496C113.487 46.096 110.021 46.896 105.818 46.896Z" fill="black"/>
</svg>
