<svg width="229" height="128" viewBox="0 0 229 128" fill="none" xmlns="http://www.w3.org/2000/svg">
<path d="M9.76 0.359997L13.376 18.312L13.632 36.2H13.952L15.328 26.568L16.96 17H24.192L26.016 26.568L27.68 36.2H28L27.936 18.376L31.2 0.999996H40.512L31.936 49H23.84L21.888 39.4L20.608 28.2L19.296 39.4L17.312 49H9.312C8.544 43.944 7.78667 39.2187 7.04 34.824C6.29333 30.4293 5.55733 26.28 4.832 22.376C4.10667 18.4507 3.392 14.728 2.688 11.208C2.00533 7.688 1.33333 4.28533 0.672 0.999996L9.76 0.359997ZM68.793 49.544C66.7023 49.544 64.7717 49.256 63.001 48.68C61.2517 48.0827 59.6623 47.2507 58.233 46.184C56.825 45.096 55.577 43.8053 54.489 42.312C53.4223 40.8187 52.5263 39.1653 51.801 37.352C51.0757 35.5173 50.5317 33.5653 50.169 31.496C49.8063 29.4053 49.625 27.24 49.625 25C49.625 21.6507 50.0197 18.4827 50.809 15.496C51.5983 12.5093 52.7823 9.90667 54.361 7.688C55.961 5.46933 57.9557 3.70933 60.345 2.408C62.7557 1.10666 65.5717 0.455997 68.793 0.455997C71.929 0.455997 74.681 1.10666 77.049 2.408C79.4383 3.70933 81.433 5.46933 83.033 7.688C84.6543 9.90667 85.8703 12.5093 86.681 15.496C87.513 18.4827 87.929 21.6507 87.929 25C87.929 27.24 87.7477 29.4053 87.385 31.496C87.0437 33.5653 86.521 35.5173 85.817 37.352C85.113 39.1653 84.2277 40.8187 83.161 42.312C82.1157 43.8053 80.8783 45.096 79.449 46.184C78.041 47.2507 76.441 48.0827 74.649 48.68C72.8783 49.256 70.9263 49.544 68.793 49.544ZM76.729 25.928C76.729 24.6053 76.6863 23.2507 76.601 21.864C76.537 20.4773 76.3983 19.1333 76.185 17.832C75.993 16.5093 75.705 15.272 75.321 14.12C74.9583 12.9467 74.4677 11.9227 73.849 11.048C73.2517 10.1733 72.5157 9.49066 71.641 9C70.7877 8.488 69.7743 8.232 68.601 8.232C67.4917 8.232 66.5317 8.46666 65.721 8.936C64.9103 9.384 64.217 10.0027 63.641 10.792C63.065 11.56 62.585 12.4667 62.201 13.512C61.8383 14.536 61.5503 15.6347 61.337 16.808C61.145 17.96 61.0063 19.1547 60.921 20.392C60.857 21.608 60.825 22.792 60.825 23.944C60.825 25.288 60.857 26.664 60.921 28.072C61.0063 29.4587 61.1557 30.8133 61.369 32.136C61.5823 33.4587 61.8703 34.7067 62.233 35.88C62.617 37.032 63.1077 38.0453 63.705 38.92C64.3023 39.7947 65.0277 40.488 65.881 41C66.7557 41.512 67.7797 41.768 68.953 41.768C70.0623 41.768 71.0223 41.544 71.833 41.096C72.6437 40.6267 73.337 39.9973 73.913 39.208C74.489 38.3973 74.9583 37.4693 75.321 36.424C75.6837 35.3787 75.9717 34.2693 76.185 33.096C76.3983 31.9227 76.537 30.728 76.601 29.512C76.6863 28.2747 76.729 27.08 76.729 25.928ZM110.418 29.8V49H100.018V8.616L98.802 1.384C100.722 1.17067 102.738 0.967999 104.85 0.775997C106.983 0.562664 109.01 0.455997 110.93 0.455997C113.831 0.455997 116.509 0.765331 118.962 1.384C121.437 1.98133 123.57 2.87733 125.362 4.072C127.175 5.24533 128.583 6.70666 129.586 8.456C130.61 10.184 131.122 12.168 131.122 14.408C131.122 16.3067 130.813 18.0453 130.194 19.624C129.597 21.1813 128.743 22.5787 127.634 23.816C126.546 25.0533 125.223 26.1093 123.666 26.984C122.109 27.8587 120.37 28.5413 118.45 29.032L121.394 29.8L134.45 49H122.77L110.418 29.8ZM110.418 13.128V23.4H111.57C113.021 23.4 114.301 23.176 115.41 22.728C116.541 22.2587 117.49 21.64 118.258 20.872C119.026 20.0827 119.602 19.176 119.986 18.152C120.391 17.1067 120.594 16.0187 120.594 14.888C120.594 13.3947 120.317 12.168 119.762 11.208C119.207 10.248 118.493 9.50133 117.618 8.968C116.765 8.41333 115.805 8.04 114.738 7.848C113.693 7.63467 112.679 7.528 111.698 7.528C111.357 7.528 111.037 7.53867 110.738 7.56C110.439 7.56 110.162 7.57066 109.906 7.592L110.418 13.128ZM147.979 49V8.584L146.923 0.999996L159.211 0.359997V15.88L171.723 0.999996H183.499L167.531 20.2L160.075 23.4L167.211 26.088L184.171 49H172.011L159.211 31.72V49H147.979ZM31.136 89.304C30.1547 88.728 29.2587 88.248 28.448 87.864C27.6587 87.4587 26.9227 87.1387 26.24 86.904C25.5573 86.6693 24.9067 86.4987 24.288 86.392C23.6907 86.2853 23.0933 86.232 22.496 86.232C21.7067 86.232 20.9173 86.3067 20.128 86.456C19.36 86.6053 18.6667 86.8613 18.048 87.224C17.4293 87.5867 16.928 88.0773 16.544 88.696C16.16 89.3147 15.968 90.0827 15.968 91C15.968 91.8747 16.1813 92.632 16.608 93.272C17.056 93.8907 17.632 94.4453 18.336 94.936C19.0613 95.4267 19.872 95.8747 20.768 96.28C21.6853 96.6853 22.6133 97.1013 23.552 97.528C25.152 98.2747 26.7733 99.0853 28.416 99.96C30.0587 100.813 31.5413 101.827 32.864 103C34.1867 104.173 35.264 105.549 36.096 107.128C36.9493 108.685 37.376 110.531 37.376 112.664C37.376 115.139 36.864 117.304 35.84 119.16C34.816 121.016 33.4507 122.563 31.744 123.8C30.0587 125.037 28.1067 125.976 25.888 126.616C23.6907 127.235 21.4187 127.544 19.072 127.544C16.384 127.544 13.8987 127.171 11.616 126.424C9.35467 125.656 7.08267 124.557 4.8 123.128L9.216 115.864C9.792 116.248 10.4747 116.653 11.264 117.08C12.0533 117.507 12.8853 117.901 13.76 118.264C14.656 118.605 15.552 118.893 16.448 119.128C17.344 119.341 18.1973 119.448 19.008 119.448C19.9467 119.448 20.8747 119.352 21.792 119.16C22.7093 118.947 23.52 118.605 24.224 118.136C24.9493 117.645 25.5253 117.005 25.952 116.216C26.4 115.427 26.624 114.435 26.624 113.24C26.624 112.088 26.3573 111.096 25.824 110.264C25.312 109.432 24.6293 108.707 23.776 108.088C22.944 107.448 21.9947 106.872 20.928 106.36C19.8613 105.848 18.784 105.336 17.696 104.824C16.16 104.099 14.6667 103.331 13.216 102.52C11.7653 101.709 10.464 100.792 9.312 99.768C8.18133 98.744 7.264 97.592 6.56 96.312C5.87733 95.032 5.536 93.56 5.536 91.896C5.536 89.7413 5.99467 87.832 6.912 86.168C7.82933 84.4827 9.04533 83.0747 10.56 81.944C12.0747 80.792 13.8027 79.928 15.744 79.352C17.6853 78.7547 19.68 78.456 21.728 78.456C24.2453 78.456 26.6453 78.8507 28.928 79.64C31.2107 80.408 33.5467 81.592 35.936 83.192L31.136 89.304ZM63.833 127H53.209V86.616C53.1237 86.1253 53.0277 85.5707 52.921 84.952C52.8143 84.3333 52.7077 83.704 52.601 83.064C52.4943 82.424 52.3877 81.7947 52.281 81.176C52.1743 80.5573 52.0783 80.0027 51.993 79.512C52.953 79.3627 53.9983 79.224 55.129 79.096C56.2597 78.968 57.3903 78.8613 58.521 78.776C59.673 78.6693 60.7823 78.5947 61.849 78.552C62.9157 78.488 63.8543 78.456 64.665 78.456C68.5263 78.456 71.8543 78.808 74.649 79.512C77.465 80.1947 79.7797 81.1547 81.593 82.392C83.4277 83.6293 84.7823 85.1013 85.657 86.808C86.5317 88.5147 86.969 90.3813 86.969 92.408C86.969 95.2027 86.4783 97.592 85.497 99.576C84.537 101.56 83.0863 103.192 81.145 104.472C79.225 105.731 76.8143 106.669 73.913 107.288C71.033 107.907 67.673 108.259 63.833 108.344V127ZM63.833 91.128V100.984C66.0517 100.899 67.9503 100.696 69.529 100.376C71.1077 100.035 72.3983 99.544 73.401 98.904C74.4037 98.2427 75.1397 97.3893 75.609 96.344C76.0783 95.2987 76.313 94.0187 76.313 92.504C76.313 91.352 75.993 90.3493 75.353 89.496C74.713 88.6213 73.8917 87.9067 72.889 87.352C71.9077 86.776 70.809 86.3493 69.593 86.072C68.377 85.7947 67.193 85.656 66.041 85.656H65.273C65.0597 85.656 64.857 85.6667 64.665 85.688C64.473 85.688 64.2703 85.6987 64.057 85.72C63.8437 85.72 63.5983 85.7307 63.321 85.752L63.833 91.128ZM97.65 127L109.01 85.912L110.162 79L122.258 78.36L136.05 127H125.362L122.034 113.336H111.09L107.858 127H97.65ZM116.626 84.408L115.378 95.32L112.978 106.328H120.146L117.842 95.32L116.626 84.408ZM183.115 122.744C180.939 124.472 178.656 125.709 176.267 126.456C173.899 127.181 171.318 127.544 168.523 127.544C165.216 127.544 162.251 126.883 159.627 125.56C157.003 124.216 154.774 122.403 152.939 120.12C151.104 117.837 149.696 115.171 148.715 112.12C147.755 109.069 147.275 105.827 147.275 102.392C147.275 100.237 147.456 98.1573 147.819 96.152C148.182 94.1253 148.736 92.2267 149.483 90.456C150.23 88.664 151.179 87.0427 152.331 85.592C153.483 84.12 154.848 82.8613 156.427 81.816C158.027 80.7493 159.84 79.928 161.867 79.352C163.894 78.7547 166.155 78.456 168.651 78.456C171.424 78.456 174.059 78.9253 176.555 79.864C179.051 80.8027 181.238 82.1787 183.115 83.992L178.379 89.88C177.675 89.4107 176.928 88.9627 176.139 88.536C175.371 88.1093 174.592 87.736 173.803 87.416C173.014 87.096 172.224 86.84 171.435 86.648C170.646 86.456 169.888 86.36 169.163 86.36C167.136 86.36 165.44 86.776 164.075 87.608C162.71 88.44 161.611 89.5813 160.779 91.032C159.947 92.4613 159.35 94.1467 158.987 96.088C158.646 98.0293 158.475 100.099 158.475 102.296C158.475 103.597 158.56 104.931 158.731 106.296C158.923 107.64 159.2 108.952 159.563 110.232C159.947 111.512 160.427 112.717 161.003 113.848C161.6 114.979 162.294 115.971 163.083 116.824C163.894 117.656 164.811 118.317 165.835 118.808C166.859 119.299 168.011 119.544 169.291 119.544C170.016 119.544 170.731 119.491 171.435 119.384C172.139 119.256 172.875 119.064 173.643 118.808C174.432 118.531 175.286 118.179 176.203 117.752C177.12 117.304 178.155 116.76 179.307 116.12L183.115 122.744ZM228.484 119.704L227.62 127H196.9L197.444 119.608V86.584L196.324 79H227.3V86.296H208.196L208.676 90.712V97.688H225.188V104.504H208.676V115.48L208.42 119.704H228.484Z" fill="black"/>
</svg>
